<?xml version="1.0" encoding="UTF-8"?>
<!DOCTYPE svg PUBLIC "-//W3C//DTD SVG 1.1//EN" "http://www.w3.org/Graphics/SVG/1.1/DTD/svg11.dtd">
<svg xmlns="http://www.w3.org/2000/svg" version="1.1" width="667px" height="220px" style="shape-rendering:geometricPrecision; text-rendering:geometricPrecision; image-rendering:optimizeQuality; fill-rule:evenodd; clip-rule:evenodd" xmlns:xlink="http://www.w3.org/1999/xlink">
<g><path style="opacity:1" fill="#fdfdfd" d="M -0.5,-0.5 C 221.833,-0.5 444.167,-0.5 666.5,-0.5C 666.5,72.8333 666.5,146.167 666.5,219.5C 444.167,219.5 221.833,219.5 -0.5,219.5C -0.5,146.167 -0.5,72.8333 -0.5,-0.5 Z"/></g>
<g><path style="opacity:1" fill="#010101" d="M 26.5,24.5 C 207.833,24.5 389.167,24.5 570.5,24.5C 570.5,26.1667 570.5,27.8333 570.5,29.5C 390.833,29.5 211.167,29.5 31.5,29.5C 31.5,64.1667 31.5,98.8333 31.5,133.5C 29.8333,133.5 28.1667,133.5 26.5,133.5C 26.5,97.1667 26.5,60.8333 26.5,24.5 Z"/></g>
<g><path style="opacity:1" fill="#670000" d="M 644.5,88.5 C 644.5,123.167 644.5,157.833 644.5,192.5C 438.167,192.5 231.833,192.5 25.5,192.5C 25.5,191.167 25.5,189.833 25.5,188.5C 230.167,188.5 434.833,188.5 639.5,188.5C 640.499,134.669 640.832,80.6692 640.5,26.5C 641.833,26.5 643.167,26.5 644.5,26.5C 644.5,47.1667 644.5,67.8333 644.5,88.5 Z"/></g>
<g><path style="opacity:1" fill="#020202" d="M 618.5,59.5 C 618.5,95.8333 618.5,132.167 618.5,168.5C 437.167,168.5 255.833,168.5 74.5,168.5C 74.5,167.167 74.5,165.833 74.5,164.5C 254.167,164.5 433.833,164.5 613.5,164.5C 613.5,129.5 613.5,94.5 613.5,59.5C 615.167,59.5 616.833,59.5 618.5,59.5 Z"/></g>
<g><path style="opacity:1" fill="#0a0a0a" d="M 308.5,62.5 C 318.511,62.2357 328.177,63.9024 337.5,67.5C 340.686,67.3184 342.686,65.6518 343.5,62.5C 344.833,70.8333 344.833,79.1667 343.5,87.5C 336.368,68.5156 323.701,63.3489 305.5,72C 300.421,75.9902 297.255,81.1569 296,87.5C 294.222,100.027 295.889,112.027 301,123.5C 307.307,130.602 315.14,133.102 324.5,131C 331.925,129.252 338.092,125.418 343,119.5C 343.808,121.579 343.641,123.579 342.5,125.5C 326.599,138.298 309.599,139.798 291.5,130C 275.298,115.37 272.465,98.5363 283,79.5C 289.797,71.1896 298.297,65.5229 308.5,62.5 Z"/></g>
<g><path style="opacity:1" fill="#6a0505" d="M 116.5,115.5 C 115.004,121.605 114.337,127.938 114.5,134.5C 93.3296,135.828 71.9962,135.828 50.5,134.5C 54.0832,134.051 57.2498,132.718 60,130.5C 60.6667,109.833 60.6667,89.1667 60,68.5C 57.2498,66.2824 54.0832,64.9491 50.5,64.5C 63.1667,63.1667 75.8333,63.1667 88.5,64.5C 86.2338,65.3142 83.9005,65.8142 81.5,66C 80.0692,66.4652 78.9025,67.2986 78,68.5C 77.3333,88.1667 77.3333,107.833 78,127.5C 78.8333,128.333 79.6667,129.167 80.5,130C 87.8992,130.848 95.2325,130.515 102.5,129C 104.96,127.542 107.127,125.709 109,123.5C 111.853,119.148 114.02,114.482 115.5,109.5C 116.466,111.396 116.799,113.396 116.5,115.5 Z"/></g>
<g><path style="opacity:1" fill="#690404" d="M 182.5,63.5 C 182.825,70.6866 182.491,77.6866 181.5,84.5C 180.56,76.4379 176.227,71.2712 168.5,69C 162.509,68.5005 156.509,68.3338 150.5,68.5C 150.5,77.8333 150.5,87.1667 150.5,96.5C 155.609,97.077 159.776,95.4104 163,91.5C 164.941,87.7505 166.274,83.7505 167,79.5C 167.827,92.3401 167.66,105.007 166.5,117.5C 166.706,114.505 166.04,111.838 164.5,109.5C 162.496,102.514 157.829,99.514 150.5,100.5C 150.168,110.19 150.502,119.856 151.5,129.5C 168.88,135.143 180.88,129.476 187.5,112.5C 187.949,115.044 187.949,117.71 187.5,120.5C 186.111,125.269 185.444,130.269 185.5,135.5C 164.823,135.833 144.156,135.5 123.5,134.5C 127.083,134.051 130.25,132.718 133,130.5C 133.667,109.833 133.667,89.1667 133,68.5C 130.25,66.2824 127.083,64.9491 123.5,64.5C 143.155,63.5004 162.822,63.167 182.5,63.5 Z"/></g>
<g><path style="opacity:1" fill="#914646" d="M 182.5,63.5 C 183.819,70.6769 183.819,78.0102 182.5,85.5C 181.893,85.3764 181.56,85.0431 181.5,84.5C 182.491,77.6866 182.825,70.6866 182.5,63.5 Z"/></g>
<g><path style="opacity:1" fill="#6b0807" d="M 196.5,63.5 C 208.186,63.1678 219.852,63.5011 231.5,64.5C 229.314,65.2208 227.147,65.8875 225,66.5C 224.333,68.1667 224.333,69.8333 225,71.5C 228.933,77.7118 233.099,83.7118 237.5,89.5C 242.38,84.7492 246.546,79.4159 250,73.5C 250.667,71.5 250.667,69.5 250,67.5C 247.645,66.1919 245.145,65.1919 242.5,64.5C 251.167,63.1667 259.833,63.1667 268.5,64.5C 265.721,65.3888 263.055,66.5555 260.5,68C 253.311,76.3544 246.311,84.8544 239.5,93.5C 247.862,105.363 256.029,117.363 264,129.5C 266.079,131.79 268.579,133.457 271.5,134.5C 259.833,135.833 248.167,135.833 236.5,134.5C 238.304,133.232 240.304,132.565 242.5,132.5C 242.662,130.473 242.495,128.473 242,126.5C 237.662,120.004 233.162,113.671 228.5,107.5C 222.802,113.033 217.635,119.033 213,125.5C 212.437,131.443 215.27,134.443 221.5,134.5C 212.5,135.833 203.5,135.833 194.5,134.5C 200.728,132.457 205.894,128.791 210,123.5C 215.536,116.918 220.703,110.085 225.5,103C 218.712,91.926 211.545,81.0927 204,70.5C 201.447,68.018 198.947,65.6847 196.5,63.5 Z"/></g>
<g><path style="opacity:1" fill="#060606" d="M 353.5,63.5 C 373.5,63.5 393.5,63.5 413.5,63.5C 413.831,70.8635 413.497,78.1968 412.5,85.5C 410.876,77.379 406.209,71.879 398.5,69C 392.509,68.5005 386.509,68.3338 380.5,68.5C 380.5,77.8333 380.5,87.1667 380.5,96.5C 385.609,97.077 389.776,95.4104 393,91.5C 394.473,87.5826 395.639,83.5826 396.5,79.5C 397.666,92.1535 397.833,104.82 397,117.5C 396.499,111.333 393.999,106.166 389.5,102C 386.607,100.851 383.607,100.351 380.5,100.5C 380.192,110.22 380.526,119.887 381.5,129.5C 398.353,135.155 410.187,129.822 417,113.5C 416.929,120.842 416.429,128.176 415.5,135.5C 394.823,135.833 374.156,135.5 353.5,134.5C 357.083,134.051 360.25,132.718 363,130.5C 363.667,109.833 363.667,89.1667 363,68.5C 359.773,66.5973 356.606,64.9307 353.5,63.5 Z"/></g>
<g><path style="opacity:1" fill="#050505" d="M 491.5,115.5 C 490.004,121.605 489.337,127.938 489.5,134.5C 468.33,135.828 446.996,135.828 425.5,134.5C 429.083,134.051 432.25,132.718 435,130.5C 435.667,109.833 435.667,89.1667 435,68.5C 432.25,66.2824 429.083,64.9491 425.5,64.5C 438.167,63.1667 450.833,63.1667 463.5,64.5C 461.234,65.3142 458.9,65.8142 456.5,66C 455.069,66.4652 453.903,67.2986 453,68.5C 452.333,88.1667 452.333,107.833 453,127.5C 472.282,135.716 484.782,129.716 490.5,109.5C 491.466,111.396 491.799,113.396 491.5,115.5 Z"/></g>
<g><path style="opacity:1" fill="#070707" d="M 563.5,109.5 C 562.966,118.178 562.299,126.844 561.5,135.5C 540.489,135.833 519.489,135.5 498.5,134.5C 501.212,133.772 503.879,132.939 506.5,132C 507.126,131.25 507.626,130.416 508,129.5C 508.667,109.167 508.667,88.8333 508,68.5C 505.25,66.2824 502.083,64.9491 498.5,64.5C 511.167,63.1667 523.833,63.1667 536.5,64.5C 533.893,65.3184 531.226,65.8184 528.5,66C 527.667,66.8333 526.833,67.6667 526,68.5C 525.333,88.5 525.333,108.5 526,128.5C 526.5,129 527,129.5 527.5,130C 533.833,130.667 540.167,130.667 546.5,130C 548.949,129.275 551.283,128.275 553.5,127C 557.521,121.447 560.854,115.613 563.5,109.5 Z"/></g>
<g><path style="opacity:1" fill="#ba8a89" d="M 645.5,88.5 C 645.167,88.5 644.833,88.5 644.5,88.5C 644.5,67.8333 644.5,47.1667 644.5,26.5C 643.167,26.5 641.833,26.5 640.5,26.5C 640.832,80.6692 640.499,134.669 639.5,188.5C 639.5,188.167 639.5,187.833 639.5,187.5C 639.5,133.5 639.5,79.5 639.5,25.5C 641.5,25.5 643.5,25.5 645.5,25.5C 645.5,46.5 645.5,67.5 645.5,88.5 Z"/></g>
<g><path style="opacity:1" fill="#c79e9e" d="M 164.5,109.5 C 166.04,111.838 166.706,114.505 166.5,117.5C 165.232,115.095 164.565,112.428 164.5,109.5 Z"/></g>
<g><path style="opacity:1" fill="#909090" d="M 563.5,109.5 C 564.529,118.254 563.862,126.921 561.5,135.5C 562.299,126.844 562.966,118.178 563.5,109.5 Z"/></g>
<g><path style="opacity:1" fill="#cda8a7" d="M 116.5,115.5 C 116.663,122.062 115.996,128.395 114.5,134.5C 114.337,127.938 115.004,121.605 116.5,115.5 Z"/></g>
<g><path style="opacity:1" fill="#a7a7a7" d="M 491.5,115.5 C 491.663,122.062 490.996,128.395 489.5,134.5C 489.337,127.938 490.004,121.605 491.5,115.5 Z"/></g>
<g><path style="opacity:1" fill="#c9a09f" d="M 187.5,120.5 C 187.556,125.731 186.889,130.731 185.5,135.5C 185.444,130.269 186.111,125.269 187.5,120.5 Z"/></g>
<g><path style="opacity:1" fill="#838383" d="M 618.5,59.5 C 619.498,95.9962 619.832,132.663 619.5,169.5C 437.666,169.833 255.999,169.5 74.5,168.5C 255.833,168.5 437.167,168.5 618.5,168.5C 618.5,132.167 618.5,95.8333 618.5,59.5 Z"/></g>
<g><path style="opacity:1" fill="#d8bfbe" d="M 639.5,187.5 C 639.5,187.833 639.5,188.167 639.5,188.5C 434.833,188.5 230.167,188.5 25.5,188.5C 25.5,189.833 25.5,191.167 25.5,192.5C 25.5,192.833 25.5,193.167 25.5,193.5C 24.5386,191.735 24.2053,189.735 24.5,187.5C 229.5,187.5 434.5,187.5 639.5,187.5 Z"/></g>
<g><path style="opacity:1" fill="#904444" d="M 644.5,88.5 C 644.833,88.5 645.167,88.5 645.5,88.5C 645.5,123.5 645.5,158.5 645.5,193.5C 438.833,193.5 232.167,193.5 25.5,193.5C 25.5,193.167 25.5,192.833 25.5,192.5C 231.833,192.5 438.167,192.5 644.5,192.5C 644.5,157.833 644.5,123.167 644.5,88.5 Z"/></g>
</svg>
