<?xml version="1.0"?>
<svg xmlns="http://www.w3.org/2000/svg" viewBox="0 0 24 24">
    <path d="M 6 2 C 4.897 2 4 2.897 4 4 L 4 8 C 2.895 8 2 8.895 2 10 L 2 15 C 2 16.104 2.895 17 4 17 L 4 20 C 4 21.103 4.897 22 6 22 L 18 22 C 19.103 22 20 21.103 20 20 L 20 4 C 20 2.897 19.103 2 18 2 L 6 2 z M 6 4 L 18 4 L 18 10 C 18 8.895 17.104 8 16 8 L 6 8 L 6 4 z M 4 10.03125 L 5.8125 10.03125 C 6.0835 10.03125 7.5665 10.2715 7.5625 11.6875 C 7.5585 13.1955 6.0815 13.25 5.8125 13.25 L 5.09375 13.25 L 5.09375 15 L 4 15 L 4 10.03125 z M 8.375 10.03125 L 9.84375 10.03125 C 10.16675 10.03125 11.969 10.002 12 12.125 L 12 12.90625 C 12.078 14.98025 10.17175 15 9.84375 15 L 8.375 15 L 8.375 10.03125 z M 13 10.03125 L 15.96875 10.03125 L 15.96875 10.875 L 14.09375 10.875 L 14.09375 12.15625 L 15.78125 12.15625 L 15.78125 12.96875 L 14.09375 12.96875 L 14.09375 15 L 13 15 L 13 10.03125 z M 5.09375 10.875 L 5.09375 12.40625 L 5.8125 12.40625 C 5.9255 12.40625 6.46375 12.2665 6.46875 11.6875 C 6.47575 10.9695 5.9255 10.875 5.8125 10.875 L 5.09375 10.875 z M 9.5 10.875 L 9.5 14.1875 C 9.5 14.1875 10.801 14.27725 10.875 12.90625 L 10.875 12.125 C 10.801 10.728 9.5 10.875 9.5 10.875 z M 18 15 L 18 20 L 6 20 L 6 17 L 16 17 C 17.104 17 18 16.104 18 15 z"/>
</svg>
